<svg width="39" height="39" viewBox="0 0 39 39" fill="none" xmlns="http://www.w3.org/2000/svg">
<path d="M33.7445 0H5.25537C2.35297 0 0 2.35285 0 5.25533V33.7445C0 36.647 2.35287 38.9998 5.25537 38.9998H19.3061L19.33 25.0634H15.7093C15.2388 25.0634 14.8569 24.6829 14.8551 24.2124L14.8377 19.7201C14.8359 19.247 15.219 18.8625 15.6921 18.8625H19.3062V14.5218C19.3062 9.48449 22.3827 6.74163 26.8764 6.74163H30.5637C31.0355 6.74163 31.4181 7.1241 31.4181 7.59597V11.3839C31.4181 11.8556 31.0358 12.2379 30.5642 12.2382L28.3013 12.2393C25.8575 12.2393 25.3843 13.4005 25.3843 15.1047V18.8626H30.7542C31.2658 18.8626 31.6628 19.3094 31.6025 19.8175L31.0701 24.3098C31.0191 24.7397 30.6546 25.0636 30.2217 25.0636H25.4083L25.3843 39H33.7447C36.6471 39 39 36.6471 39 33.7448V5.25533C38.9999 2.35285 36.647 0 33.7445 0Z" fill="#475993"/>
</svg>
