<svg width="41" height="41" viewBox="0 0 41 41" fill="none" xmlns="http://www.w3.org/2000/svg">
<g clip-path="url(#clip0_15_153)">
<path d="M37.2912 0H3.70878C1.6605 0 0 1.6605 0 3.70878V37.2911C0 39.3395 1.6605 41 3.70878 41H37.2911C39.3395 41 41 39.3395 41 37.2911V3.70878C41 1.6605 39.3395 0 37.2912 0ZM12.6871 35.4021C12.6871 35.9982 12.2039 36.4814 11.6078 36.4814H7.01347C6.41736 36.4814 5.93416 35.9982 5.93416 35.4021V16.1427C5.93416 15.5466 6.41736 15.0634 7.01347 15.0634H11.6078C12.2039 15.0634 12.6871 15.5466 12.6871 16.1427V35.4021ZM9.31065 13.2479C6.90013 13.2479 4.94597 11.2938 4.94597 8.88326C4.94597 6.47274 6.90013 4.51859 9.31065 4.51859C11.7212 4.51859 13.6753 6.47274 13.6753 8.88326C13.6753 11.2938 11.7213 13.2479 9.31065 13.2479ZM36.6971 35.489C36.6971 36.0371 36.2528 36.4814 35.7048 36.4814H30.7747C30.2267 36.4814 29.7823 36.0371 29.7823 35.489V26.4553C29.7823 25.1077 30.1776 20.5499 26.2605 20.5499C23.2221 20.5499 22.6058 23.6696 22.4821 25.0696V35.489C22.4821 36.0371 22.0378 36.4814 21.4897 36.4814H16.7215C16.1734 36.4814 15.7291 36.0371 15.7291 35.489V16.0558C15.7291 15.5078 16.1734 15.0634 16.7215 15.0634H21.4897C22.0377 15.0634 22.4821 15.5078 22.4821 16.0558V17.736C23.6087 16.0453 25.283 14.7403 28.848 14.7403C36.7423 14.7403 36.6971 22.1155 36.6971 26.1679V35.489Z" fill="#0077B7"/>
</g>
<defs>
<clipPath id="clip0_15_153">
<rect width="41" height="41" rx="5" fill="white"/>
</clipPath>
</defs>
</svg>
