<svg width="19" height="10" viewBox="0 0 19 10" fill="none" xmlns="http://www.w3.org/2000/svg">
<path d="M6.13107 9.81591C6.13107 9.8842 6.19238 9.94681 6.28987 9.97872C6.38728 10.0106 6.50573 10.0065 6.59677 9.96795L8.64741 9.10198L6.13111 8.36023V9.81591H6.13107Z" fill="white"/>
<path d="M18.3299 0.0489203C18.2736 0.0168056 18.2009 0 18.1274 0C18.0831 0 18.0389 0.00607763 17.9971 0.0187854L0.294223 5.38939C0.11328 5.44438 -0.00121858 5.55866 9.78614e-06 5.68367C0.00123816 5.80851 0.117673 5.92201 0.299918 5.97578L4.96557 7.35071L14.2945 2.60855L6.12154 7.69133L11.9338 9.40412C12.0052 9.42528 12.0831 9.4358 12.1602 9.4358C12.2261 9.4358 12.2912 9.42839 12.3533 9.41331C12.4887 9.3802 12.5962 9.3139 12.65 9.23015L18.4045 0.25183C18.4501 0.181178 18.4204 0.100396 18.3299 0.0489203Z" fill="white"/>
</svg>
