<svg width="42" height="42" viewBox="0 0 42 42" fill="none" xmlns="http://www.w3.org/2000/svg">
<path d="M31.4667 0H10.5C4.73333 0 0 4.73333 0 10.5333V31.5C0 37.2667 4.73333 42 10.5 42H31.4667C37.2667 42 42 37.2667 42 31.4667V10.5333C42 4.73333 37.2667 0 31.4667 0ZM27 34.1C26.0667 34.1 20.9333 33.9667 19.6 33.9667C18.3 33.9667 11.4333 31.8667 11.4333 24.4C11.4333 23.0667 11.4333 21.7333 11.4333 20.4C11.4333 19.1667 11.4 17.9333 11.4 16.7C11.4 16.3333 11.4 16 11.4 15.6333C11.4 13.7667 11.2333 11.6333 11.8333 9.83333C12.3 8.46667 13.4 7.96667 14.7667 7.96667C18.0667 7.96667 18.2667 11.3333 18.3 14.6667H23H27.8333C29.3333 14.6667 30.4667 16.2 30.4667 18.5C30.4667 20.8 28.0333 21.3333 26.7667 21.3333H18.2C18.1667 22.6667 18.1 23.9 18.1 24.6C18.1 26.0667 18.6667 27.6667 22.3 27.6667H27.4C28.6667 27.6667 30.5667 28.5667 30.5667 31.2333C30.6 33.9 27.9333 34.1 27 34.1Z" fill="#1511D5"/>
</svg>
