<svg width="38" height="39" viewBox="0 0 38 39" fill="none" xmlns="http://www.w3.org/2000/svg">
<g clip-path="url(#clip0_12_142)">
<path d="M37.9889 0H0.0111328C0.00498433 0 0 0.0051155 0 0.0114258V38.9886C0 38.9949 0.00498433 39 0.0111328 39H37.9889C37.995 39 38 38.9949 38 38.9886V0.0114258C38 0.0051155 37.995 0 37.9889 0Z" fill="#25D366"/>
<path d="M8.40189 31.0205L9.53208 25.6351C8.07946 23.2837 7.51279 20.469 7.93838 17.7192C8.36398 14.9694 9.7526 12.4735 11.8437 10.6998C13.9348 8.92605 16.5847 7.99637 19.2962 8.08517C22.0076 8.17397 24.5944 9.27515 26.571 11.1821C28.5477 13.0891 29.7784 15.6708 30.0324 18.4428C30.2863 21.2148 29.5459 23.9867 27.9502 26.2383C26.3544 28.49 24.013 30.0666 21.3652 30.6725C18.7173 31.2784 15.945 30.8719 13.5685 29.5292L8.40189 31.0205Z" fill="#25D366" stroke="white" stroke-width="4"/>
<path d="M21.9244 20.4744C21.7506 20.3301 21.5768 20.258 21.403 20.5465L20.7077 21.7003C20.5339 21.8446 20.4181 21.9167 20.1863 21.7724C19.3172 21.1955 18.1005 20.5465 17.0577 18.383C16.9997 18.0945 17.1156 17.9503 17.2315 17.8061L17.7529 16.7965C17.8688 16.6522 17.8109 16.508 17.7529 16.3638L17.0577 14.2724C16.8839 13.6955 16.71 13.7676 16.5362 13.7676H16.0727C15.9568 13.7676 15.7251 13.8397 15.4933 14.1282C14.2187 15.7147 14.7402 17.9503 15.6672 19.3926C15.841 19.6811 16.9997 22.2772 19.491 23.6474C21.3451 24.6571 21.7506 24.5128 22.2721 24.3686C22.9094 24.2965 23.5467 23.6474 23.8364 22.9984C23.8943 22.7821 24.184 21.8446 23.9523 21.7003" fill="white"/>
</g>
<defs>
<clipPath id="clip0_12_142">
<rect width="38" height="39" rx="6" fill="white"/>
</clipPath>
</defs>
</svg>
